<svg width="150" height="33" viewBox="0 0 150 33" fill="none" xmlns="http://www.w3.org/2000/svg">
<path d="M18.7372 32.5362H14.7131V20.6868C14.7131 19.3632 14.5748 18.2872 14.3027 17.4588C13.8477 16.1037 13.009 15.0908 11.791 14.4155C11.0906 14.0148 10.2831 13.8167 9.36859 13.8167C8.97154 13.8167 8.5611 13.8617 8.13283 13.9563C7.70455 14.0508 7.31196 14.2039 6.94614 14.4155C5.69699 15.0908 4.85828 16.0902 4.43446 17.4138C4.16233 18.2422 4.02403 19.3362 4.02403 20.6868V32.5407H0L0 20.6868C0 18.7194 0.245368 17.0582 0.731642 15.7076C1.40083 13.8302 2.60536 12.358 4.34078 11.282C5.80406 10.3906 7.47703 9.94493 9.36859 9.94493C11.2601 9.94493 12.9331 10.3906 14.3964 11.282C16.1006 12.358 17.3051 13.8347 18.0055 15.7076C18.4963 17.0266 18.7372 18.6879 18.7372 20.6868V32.5362ZM44.6079 21.4702C44.6079 24.6666 43.497 27.3904 41.2709 29.6324C39.0447 31.8789 36.3501 32.9999 33.1826 32.9999C30.0152 32.9999 27.3161 31.8789 25.0944 29.6324C22.8683 27.3859 21.7574 24.6666 21.7574 21.4702C21.7574 18.2737 22.8683 15.55 25.0944 13.308C27.3206 11.0614 30.0152 9.94043 33.1826 9.94043C36.3501 9.94043 39.0492 11.0614 41.2709 13.308C43.4926 15.55 44.6079 18.2692 44.6079 21.4702ZM40.4946 21.4702C40.4946 19.2236 39.8165 17.3868 38.4603 15.9597C37.1041 14.528 35.3463 13.8167 33.1826 13.8167C31.0502 13.8167 29.2969 14.5235 27.9273 15.9372C26.5577 17.3508 25.8707 19.1966 25.8707 21.4702C25.8707 23.7437 26.5399 25.5895 27.8827 27.0032C29.2255 28.4168 30.9922 29.1236 33.1826 29.1236C35.3776 29.1236 37.1442 28.4168 38.4826 27.0032C39.821 25.5895 40.4946 23.7437 40.4946 21.4702ZM90.1258 21.4702C90.1258 24.6666 89.015 27.3904 86.7888 29.6324C84.5627 31.8789 81.8681 32.9999 78.7006 32.9999C75.5331 32.9999 72.8341 31.8789 70.6124 29.6324C68.3862 27.3859 67.2754 24.6666 67.2754 21.4702C67.2754 18.2737 68.3862 15.55 70.6124 13.308C72.8385 11.0614 75.5331 9.94043 78.7006 9.94043C81.8681 9.94043 84.5671 11.0614 86.7888 13.308C89.0105 15.5545 90.1258 18.2692 90.1258 21.4702ZM86.0126 21.4702C86.0126 19.2236 85.3344 17.3868 83.9782 15.9597C82.622 14.528 80.8643 13.8167 78.7006 13.8167C76.5681 13.8167 74.8149 14.5235 73.4453 15.9372C72.0757 17.3508 71.3886 19.1966 71.3886 21.4702C71.3886 23.7437 72.0578 25.5895 73.4007 27.0032C74.739 28.4168 76.5101 29.1236 78.7006 29.1236C80.8955 29.1236 82.6622 28.4168 84.0005 27.0032C85.3434 25.5895 86.0126 23.7437 86.0126 21.4702ZM110.465 26.3594C110.465 27.0347 110.38 27.683 110.215 28.2953C110.045 28.912 109.795 29.4658 109.461 29.9565C108.698 31.0325 107.676 31.7708 106.4 32.1715C105.58 32.4191 104.527 32.5407 103.246 32.5407H92.5081V28.6644H103.019C104.054 28.6644 104.723 28.6194 105.031 28.5249C105.914 28.2773 106.356 27.71 106.356 26.8186C106.356 26.1433 106.11 25.5895 105.624 25.1573C105.258 24.8512 104.678 24.5586 103.889 24.2794C101.877 23.6627 99.8825 23.0324 97.9017 22.3886C95.8317 21.6187 94.4131 20.7183 93.6502 19.6919C92.8873 18.6609 92.5081 17.5624 92.5081 16.3964C92.5081 15.8426 92.5527 15.2889 92.6464 14.7351C92.7356 14.1814 93.0122 13.5961 93.4673 12.9838C94.2614 11.9078 95.3544 11.1695 96.7597 10.7688C97.643 10.5212 98.8163 10.3996 100.28 10.3996H109.465V14.2759H99.1286C98.3657 14.2759 97.759 14.42 97.2995 14.7126C96.8444 15.0052 96.6124 15.4284 96.6124 15.9822C96.6124 16.626 96.8712 17.1662 97.3887 17.5984C97.7233 17.873 98.2586 18.1387 98.9903 18.3818C100.94 18.9985 102.907 19.5973 104.888 20.1826C107.021 20.9524 108.484 21.8573 109.273 22.9018C110.068 23.9418 110.465 25.0988 110.465 26.3594ZM135.644 22.7127C135.43 25.0493 134.667 27.0617 133.36 28.7545C132.508 29.862 131.423 30.7849 130.116 31.5232C129.295 32.014 128.363 32.3831 127.328 32.6307C126.293 32.8784 125.258 32.9999 124.219 32.9999C122.452 32.9999 120.743 32.5992 119.102 31.8024C117.183 30.8479 115.657 29.4748 114.533 27.674C113.405 25.8732 112.842 23.8067 112.842 21.4702C112.842 18.1792 113.931 15.4374 116.112 13.2359C118.29 11.0389 120.993 9.94043 124.223 9.94043C126.476 9.94043 128.55 10.5257 130.438 11.6917C132.325 12.8623 133.788 14.6136 134.823 16.9501L120.016 25.2519L118.37 22.0239L129.202 15.9372C128.47 15.1358 127.663 14.582 126.779 14.2759C125.896 13.9698 125.013 13.8167 124.129 13.8167C121.997 13.8167 120.266 14.5325 118.941 15.9597C117.616 17.3913 116.951 19.2281 116.951 21.4702C116.951 22.9784 117.255 24.2975 117.866 25.4365C118.477 26.5755 119.267 27.4489 120.244 28.0657C120.792 28.4033 121.404 28.6644 122.073 28.849C122.742 29.0336 123.429 29.1236 124.129 29.1236C124.95 29.1236 125.691 29.0561 126.347 28.9166C127.002 28.777 127.649 28.5249 128.287 28.1557C129.264 27.5704 130.054 26.7511 130.665 25.6886C131.276 24.6261 131.58 23.4691 131.58 22.2085L135.644 22.7127Z" fill="#403F3F"/>
<path d="M66.7267 10.3997L59.1872 30.1862C58.8214 31.1721 58.518 31.8024 58.2727 32.077C57.7552 32.6938 56.9789 32.9999 55.9439 32.9999C55.1498 32.9999 54.5342 32.8379 54.0925 32.5137C53.6508 32.1896 53.1869 31.4152 52.7006 30.1862L45.1611 10.3997H49.5465L55.9395 27.4624L62.3369 10.3997H66.7267Z" fill="#0D9C00"/>
<path d="M143.554 32.5364H138.664V0.252197H143.554V32.5364Z" fill="#005FCC"/>
<path fill-rule="evenodd" clip-rule="evenodd" d="M139.454 1.82324H140.591V2.97126H139.454V1.82324Z" fill="#F0F0F0"/>
<path fill-rule="evenodd" clip-rule="evenodd" d="M141.657 1.82324H142.795V2.97126H141.657V1.82324Z" fill="#F0F0F0"/>
<path fill-rule="evenodd" clip-rule="evenodd" d="M139.454 4.25H140.591V5.39802H139.454V4.25Z" fill="#F0F0F0"/>
<path fill-rule="evenodd" clip-rule="evenodd" d="M141.657 4.25H142.795V5.39802H141.657V4.25Z" fill="#F0F0F0"/>
<path fill-rule="evenodd" clip-rule="evenodd" d="M139.454 7.05908H140.591V8.2071H139.454V7.05908Z" fill="#F0F0F0"/>
<path fill-rule="evenodd" clip-rule="evenodd" d="M141.657 7.05908H142.795V8.2071H141.657V7.05908Z" fill="#F0F0F0"/>
<path fill-rule="evenodd" clip-rule="evenodd" d="M139.454 9.86401H140.591V11.012H139.454V9.86401Z" fill="#F0F0F0"/>
<path fill-rule="evenodd" clip-rule="evenodd" d="M141.657 9.86401H142.795V11.012H141.657V9.86401Z" fill="#F0F0F0"/>
<path d="M150 32.5364H145.11V0.252197H150V32.5364Z" fill="#005FCC"/>
<path fill-rule="evenodd" clip-rule="evenodd" d="M145.775 1.82324H146.913V2.97126H145.775V1.82324Z" fill="#F0F0F0"/>
<path fill-rule="evenodd" clip-rule="evenodd" d="M147.984 1.82324H149.121V2.97126H147.984V1.82324Z" fill="#F0F0F0"/>
<path fill-rule="evenodd" clip-rule="evenodd" d="M145.775 4.25H146.913V5.39802H145.775V4.25Z" fill="#F0F0F0"/>
<path fill-rule="evenodd" clip-rule="evenodd" d="M147.984 4.25H149.121V5.39802H147.984V4.25Z" fill="#F0F0F0"/>
<path fill-rule="evenodd" clip-rule="evenodd" d="M145.775 7.05908H146.913V8.2071H145.775V7.05908Z" fill="#F0F0F0"/>
<path fill-rule="evenodd" clip-rule="evenodd" d="M147.984 7.05908H149.121V8.2071H147.984V7.05908Z" fill="#F0F0F0"/>
<path fill-rule="evenodd" clip-rule="evenodd" d="M145.775 9.86401H146.913V11.012H145.775V9.86401Z" fill="#F0F0F0"/>
<path fill-rule="evenodd" clip-rule="evenodd" d="M147.984 9.86401H149.121V11.012H147.984V9.86401Z" fill="#F0F0F0"/>
<path fill-rule="evenodd" clip-rule="evenodd" d="M61.5828 12.4392L64.4736 16.2884L70.7863 0L66.3251 0L61.5828 12.4392Z" fill="#0D9C00"/>
</svg>
