<svg width="48" height="48" viewBox="0 0 48 48" fill="none" xmlns="http://www.w3.org/2000/svg">
<path d="M26.9798 10.96C29.1798 10.96 30.9798 9.15996 30.9798 6.95996C30.9798 4.75996 29.1798 2.95996 26.9798 2.95996C24.7798 2.95996 22.9798 4.75996 22.9798 6.95996C22.9798 9.15996 24.7798 10.96 26.9798 10.96ZM19.7798 38.76L21.7798 29.96L25.9798 33.96V45.96H29.9798V30.96L25.7798 26.96L26.9798 20.96C29.5798 23.96 33.5798 25.96 37.9798 25.96V21.96C34.1798 21.96 30.9798 19.96 29.3798 17.16L27.3798 13.96C26.5798 12.76 25.3798 11.96 23.9798 11.96C23.3798 11.96 22.9798 12.16 22.3798 12.16L11.9798 16.56V25.96H15.9798V19.16L19.5798 17.76L16.3798 33.96L6.57978 31.96L5.77979 35.96L19.7798 38.76Z" fill="currentColor"/>
</svg>
